# xmcd CD database file
#
# Track frame offsets:
#	150
#	20523
#	39834
#	61567
#	92161
#	110543
#	131840
#	152234
#	171071
#	197916
#	220130
#
# Disc length: 3180 seconds
#
# Revision: 1
# Processed by: cddbd v1.5.1PL0 Copyright (c) Steve Scherf et al.
# Submitted via: CDex 1.51
#
DISCID=900c6a0b
DTITLE=Poudre River Irregulars - Play New Orleans and Dixieland Jazz
DYEAR=1998
DGENRE=Jazz
TTITLE0=Bourbon Street Parade
TTITLE1=Savoy Blues
TTITLE2=Struttin' With Some Barbecue
TTITLE3=Tin Roof Blues
TTITLE4=New Orleans Stomp
TTITLE5=San Francisco Bay Blues
TTITLE6=Royal Garden Blues
TTITLE7=Georgia On My Mind
TTITLE8=Yellow Dog Blues
TTITLE9=Milenberg Joys
TTITLE10=Just A Closer Walk With Thee
EXTD=YEAR: 1998
EXTT0=
EXTT1=
EXTT2=
EXTT3=
EXTT4=
EXTT5=
EXTT6=
EXTT7=
EXTT8=
EXTT9=
EXTT10=
PLAYORDER=
